<?xml version="1.0" standalone="no"?><svg xmlns="http://www.w3.org/2000/svg" viewBox="0 0 1440 320"><path fill="#0f486f" fill-opacity="1" d="M0,288L13.3,266.7C26.7,245,53,203,80,186.7C106.7,171,133,181,160,197.3C186.7,213,213,235,240,208C266.7,181,293,107,320,106.7C346.7,107,373,181,400,213.3C426.7,245,453,235,480,208C506.7,181,533,139,560,133.3C586.7,128,613,160,640,192C666.7,224,693,256,720,266.7C746.7,277,773,267,800,266.7C826.7,267,853,277,880,245.3C906.7,213,933,139,960,96C986.7,53,1013,43,1040,64C1066.7,85,1093,139,1120,149.3C1146.7,160,1173,128,1200,112C1226.7,96,1253,96,1280,112C1306.7,128,1333,160,1360,149.3C1386.7,139,1413,85,1427,58.7L1440,32L1440,0L1426.7,0C1413.3,0,1387,0,1360,0C1333.3,0,1307,0,1280,0C1253.3,0,1227,0,1200,0C1173.3,0,1147,0,1120,0C1093.3,0,1067,0,1040,0C1013.3,0,987,0,960,0C933.3,0,907,0,880,0C853.3,0,827,0,800,0C773.3,0,747,0,720,0C693.3,0,667,0,640,0C613.3,0,587,0,560,0C533.3,0,507,0,480,0C453.3,0,427,0,400,0C373.3,0,347,0,320,0C293.3,0,267,0,240,0C213.3,0,187,0,160,0C133.3,0,107,0,80,0C53.3,0,27,0,13,0L0,0Z"></path></svg>